<?xml version="1.0" encoding="UTF-8"?>
<svg xmlns="http://www.w3.org/2000/svg" xmlns:xlink="http://www.w3.org/1999/xlink" viewBox="0 0 32 32" width="32px" height="32px">
<g id="surface65724624">
<path style=" stroke:none;fill-rule:nonzero;fill:rgb(90.196079%,49.411765%,13.333334%);fill-opacity:1;" d="M 17 0.640625 C 14.476562 0.640625 12.421875 2.648438 12.421875 5.121094 C 12.421875 6.253906 12.824219 7.035156 13.519531 8.019531 C 14.011719 8.71875 14.074219 9.179688 13.980469 9.359375 C 13.890625 9.53125 13.546875 9.628906 13.101562 9.601562 C 11.515625 9.492188 6.617188 8.921875 6.601562 8.921875 C 6.488281 8.902344 6.378906 8.898438 6.28125 8.898438 C 5.71875 8.898438 4.746094 9.171875 4.539062 10.980469 C 4.484375 11.246094 4.234375 12.675781 3.859375 17.640625 C 3.820312 17.84375 3.851562 18.023438 3.878906 18.179688 C 4.015625 18.882812 4.484375 19.300781 5.121094 19.300781 C 5.78125 19.300781 6.53125 18.855469 7.539062 18.140625 C 8.382812 17.546875 9.082031 17.28125 9.800781 17.28125 C 11.617188 17.28125 13.101562 18.714844 13.101562 20.480469 C 13.101562 22.246094 11.617188 23.679688 9.800781 23.679688 C 8.953125 23.679688 8.371094 23.445312 7.5 22.761719 C 6.488281 21.964844 5.726562 21.601562 5.121094 21.601562 C 4.582031 21.601562 4.167969 21.894531 3.960938 22.398438 C 3.839844 22.695312 3.816406 23.132812 3.859375 23.378906 C 4.191406 26.863281 4.359375 27.503906 4.5 28.058594 L 4.558594 28.300781 C 4.808594 29.378906 5.574219 30.078125 6.5 30.078125 L 27 30.078125 C 28.484375 30.078125 29.441406 29.136719 29.441406 27.679688 L 29.441406 11.121094 C 29.441406 10.023438 28.855469 9.289062 27.679688 8.941406 C 27.601562 8.914062 27.503906 8.914062 27.421875 8.921875 C 27.371094 8.925781 22.566406 9.402344 20.859375 9.601562 C 20.796875 9.609375 20.722656 9.621094 20.660156 9.621094 C 20.496094 9.621094 20.207031 9.59375 20.101562 9.398438 C 19.984375 9.191406 20.015625 8.707031 20.460938 8 L 20.539062 7.878906 C 21.222656 6.796875 21.558594 6.246094 21.558594 5.121094 C 21.558594 2.648438 19.523438 0.640625 17 0.640625 Z M 17 0.640625 "/>
</g>
</svg>
